# xmcd CD database file
#
# Track frame offsets:
#	150
#	23055
#	43663
#	63960
#	89417
#	115641
#	142029
#	166165
#	187133
#	212667
#	232591
#	255902
#
# Disc length: 3829 seconds
#
# Revision: 0
# Processed by: cddbd v1.5.2PL0 Copyright (c) Steve Scherf et al.
# Submitted via: CDex 1.51
#
DISCID=960ef30c
DTITLE=Nils Landgren - Licence to Fun
DYEAR=2007
DGENRE=Jazz
TTITLE0=Nils Landgren - House Party
TTITLE1=Nils Landgren - Freak U
TTITLE2=Nils Landgren - 24Hours
TTITLE3=Nils Landgren - Stuff Like That
TTITLE4=Nils Landgren - Slowfoot
TTITLE5=Nils Landgren - Capetown Shuffle
TTITLE6=Nils Landgren - At Home
TTITLE7=Nils Landgren - Secret
TTITLE8=Nils Landgren - SampleRayT
TTITLE9=Nils Landgren - For Those Who Like To Party
TTITLE10=Nils Landgren - Brazos River Breakdown
TTITLE11=Nils Landgren - Tomomis Tune
EXTD=YEAR: 2007
EXTT0=
EXTT1=
EXTT2=
EXTT3=
EXTT4=
EXTT5=
EXTT6=
EXTT7=
EXTT8=
EXTT9=
EXTT10=
EXTT11=
PLAYORDER=
